<svg width="1151" height="360" viewBox="0 0 1151 360" fill="none" xmlns="http://www.w3.org/2000/svg">
<g clip-path="url(#clip0_1226_2166)">
<path d="M247.314 46.9203C251.14 38.0367 248.287 27.6617 240.441 21.9555C232.595 16.2492 221.895 16.768 214.568 23.1227L48.568 168.373C42.0836 174.079 39.7492 183.222 42.7969 191.263C45.8446 199.303 53.6258 204.75 62.25 204.75H134.551L84.686 321.08C80.8602 329.963 83.7133 340.338 91.5594 346.045C99.4055 351.751 110.105 351.232 117.432 344.877L283.432 199.627C289.916 193.921 292.251 184.778 289.203 176.738C286.155 168.697 278.439 163.315 269.75 163.315H197.449L247.314 46.9203Z" fill="#50D890"/>
</g>
<path d="M372.42 260V233.77H408.11C414.703 233.77 419.863 231.835 423.59 227.965C427.317 224.095 429.18 219.365 429.18 213.775C429.18 209.905 428.32 206.465 426.6 203.455C424.88 200.445 422.443 198.08 419.29 196.36C416.28 194.64 412.553 193.78 408.11 193.78H372.42V168.195H405.315C410.905 168.195 415.42 166.833 418.86 164.11C422.3 161.243 424.02 156.943 424.02 151.21C424.02 145.62 422.3 141.463 418.86 138.74C415.42 135.873 410.905 134.44 405.315 134.44H372.42V108.21H411.765C421.512 108.21 429.753 110.002 436.49 113.585C443.37 117.168 448.602 121.97 452.185 127.99C455.768 134.01 457.56 140.675 457.56 147.985C457.56 157.302 454.55 165.185 448.53 171.635C442.51 178.085 433.623 182.528 421.87 184.965L422.73 173.57C435.487 176.007 445.305 180.952 452.185 188.405C459.208 195.858 462.72 205.032 462.72 215.925C462.72 224.238 460.642 231.763 456.485 238.5C452.472 245.093 446.595 250.325 438.855 254.195C431.258 258.065 422.085 260 411.335 260H372.42ZM346.62 260V108.21H379.945V260H346.62ZM496.179 260V112.295H529.074V260H496.179ZM472.529 183.46V155.51H618.944V183.46H472.529ZM562.399 260V112.295H595.294V260H562.399ZM633.356 260V155.51H666.251V260H633.356ZM666.251 202.595L652.491 191.845C655.214 179.662 659.801 170.202 666.251 163.465C672.701 156.728 681.659 153.36 693.126 153.36C698.143 153.36 702.514 154.148 706.241 155.725C710.111 157.158 713.479 159.452 716.346 162.605L696.781 187.33C695.348 185.753 693.556 184.535 691.406 183.675C689.256 182.815 686.819 182.385 684.096 182.385C678.649 182.385 674.278 184.105 670.981 187.545C667.828 190.842 666.251 195.858 666.251 202.595ZM757.698 204.745V178.515H790.378C794.535 178.515 798.333 177.655 801.773 175.935C805.213 174.215 807.937 171.707 809.943 168.41C811.95 165.113 812.953 161.1 812.953 156.37C812.953 151.783 811.95 147.842 809.943 144.545C807.937 141.248 805.213 138.74 801.773 137.02C798.333 135.3 794.535 134.44 790.378 134.44H757.698V108.21H795.323C804.927 108.21 813.598 110.145 821.338 114.015C829.078 117.885 835.17 123.475 839.613 130.785C844.2 137.952 846.493 146.48 846.493 156.37C846.493 166.26 844.2 174.86 839.613 182.17C835.17 189.337 829.078 194.927 821.338 198.94C813.598 202.81 804.927 204.745 795.323 204.745H757.698ZM731.898 260V108.21H765.653V260H731.898ZM888.223 260V230.33H925.848C935.022 230.33 943.048 228.538 949.928 224.955C956.808 221.228 962.112 215.853 965.838 208.83C969.565 201.807 971.428 193.493 971.428 183.89C971.428 174.287 969.493 166.045 965.623 159.165C961.897 152.285 956.593 146.982 949.713 143.255C942.977 139.528 935.022 137.665 925.848 137.665H887.148V108.21H926.278C937.745 108.21 948.28 110.073 957.883 113.8C967.63 117.383 976.087 122.615 983.253 129.495C990.563 136.232 996.153 144.258 1000.02 153.575C1004.04 162.748 1006.04 172.925 1006.04 184.105C1006.04 195.142 1004.04 205.318 1000.02 214.635C996.153 223.952 990.635 231.978 983.468 238.715C976.302 245.452 967.845 250.683 958.098 254.41C948.495 258.137 938.032 260 926.708 260H888.223ZM865.433 260V108.21H899.188V260H865.433ZM1027.52 260V108.21H1061.28V260H1027.52ZM1053.32 200.445V171.42H1129.22V200.445H1053.32ZM1053.32 137.235V108.21H1132.66V137.235H1053.32Z" fill="#50D890"/>
<defs>
<clipPath id="clip0_1226_2166">
<rect width="332" height="332" fill="white" transform="translate(0 18)"/>
</clipPath>
</defs>
</svg>
